After losing her job, making out with her soon to be ex-boss, and finding out that her daughter plans to spend Thanksgiving with her boyfriend, Claudia Larson has to face spending the holiday with her family. She wonders if she can survive their crazy antics.
 
http://imageshack.us/a/img4/9444/vlcsnap2012121111h51m47.png 
http://imageshack.us/a/img194/1939/vlcsnap2012121111h52m00.png 
http://imageshack.us/a/img23/4678/vlcsnap2012121111h52m16.png 
http://imageshack.us/a/img855/374/vlcsnap2012121111h52m42.png 
http://imageshack.us/a/img831/2740/vlcsnap2012121111h53m06.png


Video
ID                                       : 1
Format                                   : AVC
Format/Info                              : Advanced Video Codec
Format profile                           : Main@L3.0
Format settings, CABAC                   : Yes
Format settings, ReFrames                : 4 frames
Codec ID                                 : avc1
Codec ID/Info                            : Advanced Video Coding
Duration                                 : 1h 42mn
Bit rate mode                            : Variable
Bit rate                                 : 840 Kbps
Width                                    : 640 pixels
Height                                   : 432 pixels
Display aspect ratio                     : 16:9
Original display aspect ratio            : 16:9
Frame rate mode                          : Variable
Frame rate                               : 23.976 fps
Minimum frame rate                       : 23.974 fps
Maximum frame rate                       : 23.981 fps
Color space                              : YUV
Chroma subsampling                       : 4:2:0
Bit depth                                : 8 bits
Scan type                                : Progressive
Bits/(Pixel*Frame)                       : 0.127
Stream size                              : 617 MiB (65%)
Writing library                          : x264 core 120

Audio
ID                                       : 2
Format                                   : AC-3
Format/Info                              : Audio Coding 3
Mode extension                           : CM (complete main)
Format settings, Endianness              : Big
Codec ID                                 : ac-3
Duration                                 : 1h 42mn
Bit rate mode                            : Constant
Bit rate                                 : 448 Kbps
Channel(s)                               : 6 channels
Channel positions                        : Front: L C R, Side: L R, LFE
Sampling rate                            : 48.0 KHz
Bit depth                                : 16 bits
Compression mode                         : Lossy
Delay relative to video                  : 83ms
Stream size                              : 329 MiB (35%)
Language                                 : English
Encoded date                             : UTC 2012-12-11 16:22:55
Tagged date                              : UTC 2012-12-11 17:38:42
